<?xml version="1.0" encoding="utf-8" ?>
<svg baseProfile="tiny" height="100%" version="1.2" width="100%" xmlns="http://www.w3.org/2000/svg" xmlns:ev="http://www.w3.org/2001/xml-events" xmlns:xlink="http://www.w3.org/1999/xlink"><defs /><path d="M 8.0,104.2 L 7.0,104.2 L 6.8,104.0 L 6.0,103.2 L 5.0,103.2 L 4.8,103.0 L 4.0,102.2 L 3.8,102.0 L 3.8,101.0 L 3.0,100.2 L 2.8,100.0 L 2.8,99.0 L 2.8,98.0 L 3.0,97.8 L 3.8,97.0 L 3.8,96.0 L 3.8,95.0 L 3.8,94.0 L 4.0,93.8 L 4.8,93.0 L 4.8,92.0 L 4.8,91.0 L 5.0,90.8 L 5.8,90.0 L 5.8,89.0 L 6.0,88.8 L 6.8,88.0 L 6.8,87.0 L 6.0,86.2 L 5.0,86.2 L 4.2,87.0 L 4.0,87.2 L 3.0,87.2 L 2.8,87.0 L 2.8,86.0 L 2.8,85.0 L 2.8,84.0 L 3.0,83.8 L 3.8,83.0 L 4.0,82.8 L 5.0,82.8 L 5.8,82.0 L 6.0,81.8 L 7.0,81.8 L 8.0,81.8 L 8.8,81.0 L 9.0,80.8 L 9.8,80.0 L 9.8,79.0 L 9.8,78.0 L 10.0,77.8 L 10.8,77.0 L 10.8,76.0 L 10.8,75.0 L 11.0,74.8 L 11.8,74.0 L 11.8,73.0 L 12.0,72.8 L 12.8,72.0 L 12.0,71.2 L 11.0,71.2 L 10.0,71.2 L 9.2,72.0 L 9.0,72.2 L 8.0,72.2 L 7.2,73.0 L 7.2,74.0 L 7.0,74.2 L 6.2,75.0 L 6.2,76.0 L 7.0,76.8 L 7.2,77.0 L 7.2,78.0 L 7.2,79.0 L 7.2,80.0 L 7.0,80.2 L 6.0,80.2 L 5.0,80.2 L 4.8,80.0 L 4.0,79.2 L 3.8,79.0 L 3.0,78.2 L 2.8,78.0 L 2.8,77.0 L 2.8,76.0 L 2.8,75.0 L 2.8,74.0 L 2.8,73.0 L 3.0,72.8 L 3.8,72.0 L 4.0,71.8 L 4.8,71.0 L 5.0,70.8 L 5.8,70.0 L 6.0,69.8 L 6.8,69.0 L 7.0,68.8 L 8.0,68.8 L 8.8,68.0 L 9.0,67.8 L 10.0,67.8 L 11.0,67.8 L 12.0,67.8 L 13.0,67.8 L 13.8,67.0 L 14.0,66.8 L 15.0,66.8 L 16.0,66.8 L 17.0,66.8 L 18.0,66.8 L 18.2,67.0 L 19.0,67.8 L 20.0,67.8 L 21.0,67.8 L 22.0,67.8 L 23.0,67.8 L 24.0,67.8 L 25.0,67.8 L 26.0,67.8 L 26.8,67.0 L 27.0,66.8 L 28.0,66.8 L 29.0,66.8 L 29.2,67.0 L 29.2,68.0 L 29.0,68.2 L 28.2,69.0 L 28.0,69.2 L 27.2,70.0 L 27.0,70.2 L 26.2,71.0 L 26.0,71.2 L 25.0,71.2 L 24.2,72.0 L 24.0,72.2 L 23.0,72.2 L 22.0,72.2 L 21.0,72.2 L 20.0,72.2 L 19.0,72.2 L 18.0,72.2 L 17.8,72.0 L 17.0,71.2 L 16.2,72.0 L 16.2,73.0 L 16.2,74.0 L 16.0,74.2 L 15.2,75.0 L 15.2,76.0 L 15.2,77.0 L 15.0,77.2 L 14.2,78.0 L 14.2,79.0 L 14.2,80.0 L 14.0,80.2 L 13.2,81.0 L 14.0,81.8 L 15.0,81.8 L 16.0,81.8 L 16.2,82.0 L 17.0,82.8 L 18.0,82.8 L 19.0,82.8 L 20.0,82.8 L 21.0,82.8 L 21.2,83.0 L 21.2,84.0 L 21.0,84.2 L 20.0,84.2 L 19.2,85.0 L 19.0,85.2 L 18.0,85.2 L 17.2,86.0 L 17.0,86.2 L 16.0,86.2 L 15.0,86.2 L 14.0,86.2 L 13.0,86.2 L 12.0,86.2 L 11.2,87.0 L 11.2,88.0 L 11.2,89.0 L 11.2,90.0 L 11.0,90.2 L 10.2,91.0 L 10.2,92.0 L 10.2,93.0 L 10.2,94.0 L 10.0,94.2 L 9.2,95.0 L 9.2,96.0 L 9.2,97.0 L 9.2,98.0 L 9.0,98.2 L 8.2,99.0 L 8.2,100.0 L 8.2,101.0 L 8.2,102.0 L 8.2,103.0 L 8.2,104.0 L 8.0,104.2 Z" fill="black" /><path d="M 114.0,103.2 L 113.0,103.2 L 112.0,103.2 L 111.0,103.2 L 110.0,103.2 L 109.0,103.2 L 108.0,103.2 L 107.0,103.2 L 106.0,103.2 L 105.0,103.2 L 104.8,103.0 L 104.0,102.2 L 103.0,102.2 L 102.8,102.0 L 102.0,101.2 L 101.8,101.0 L 101.0,100.2 L 100.8,100.0 L 100.0,99.2 L 99.8,99.0 L 99.8,98.0 L 99.8,97.0 L 99.8,96.0 L 99.8,95.0 L 99.8,94.0 L 99.8,93.0 L 99.8,92.0 L 100.0,91.8 L 100.8,91.0 L 100.8,90.0 L 101.0,89.8 L 102.0,89.8 L 102.8,89.0 L 103.0,88.8 L 104.0,88.8 L 105.0,88.8 L 105.8,88.0 L 106.0,87.8 L 107.0,87.8 L 107.2,88.0 L 107.2,89.0 L 107.0,89.2 L 106.2,90.0 L 106.0,90.2 L 105.2,91.0 L 105.2,92.0 L 105.2,93.0 L 105.0,93.2 L 104.2,94.0 L 104.2,95.0 L 104.2,96.0 L 105.0,96.8 L 105.2,97.0 L 105.2,98.0 L 106.0,98.8 L 106.2,99.0 L 107.0,99.8 L 108.0,99.8 L 109.0,99.8 L 110.0,99.8 L 111.0,99.8 L 112.0,99.8 L 113.0,99.8 L 113.8,99.0 L 114.0,98.8 L 115.0,98.8 L 115.8,98.0 L 116.0,97.8 L 116.8,97.0 L 116.8,96.0 L 116.8,95.0 L 116.8,94.0 L 116.8,93.0 L 116.8,92.0 L 116.0,91.2 L 115.8,91.0 L 115.0,90.2 L 114.0,90.2 L 113.8,90.0 L 113.0,89.2 L 112.8,89.0 L 112.0,88.2 L 111.0,88.2 L 110.8,88.0 L 110.0,87.2 L 109.0,87.2 L 108.8,87.0 L 108.0,86.2 L 107.8,86.0 L 107.0,85.2 L 106.8,85.0 L 106.0,84.2 L 105.8,84.0 L 105.0,83.2 L 104.8,83.0 L 104.8,82.0 L 104.0,81.2 L 103.8,81.0 L 103.8,80.0 L 103.8,79.0 L 103.8,78.0 L 104.0,77.8 L 104.8,77.0 L 104.8,76.0 L 104.8,75.0 L 105.0,74.8 L 105.8,74.0 L 105.8,73.0 L 106.0,72.8 L 106.8,72.0 L 107.0,71.8 L 107.8,71.0 L 108.0,70.8 L 108.8,70.0 L 109.0,69.8 L 109.8,69.0 L 110.0,68.8 L 111.0,68.8 L 111.8,68.0 L 112.0,67.8 L 113.0,67.8 L 113.8,67.0 L 114.0,66.8 L 115.0,66.8 L 116.0,66.8 L 117.0,66.8 L 118.0,66.8 L 119.0,66.8 L 119.2,67.0 L 120.0,67.8 L 121.0,67.8 L 121.2,68.0 L 122.0,68.8 L 122.2,69.0 L 122.2,70.0 L 123.0,70.8 L 123.2,71.0 L 123.2,72.0 L 123.2,73.0 L 123.0,73.2 L 122.2,74.0 L 122.2,75.0 L 122.2,76.0 L 122.2,77.0 L 122.0,77.2 L 121.2,78.0 L 121.2,79.0 L 121.0,79.2 L 120.2,80.0 L 120.2,81.0 L 120.0,81.2 L 119.2,82.0 L 119.0,82.2 L 118.0,82.2 L 117.0,82.2 L 116.8,82.0 L 116.0,81.2 L 115.8,81.0 L 115.8,80.0 L 115.8,79.0 L 116.0,78.8 L 116.8,78.0 L 116.8,77.0 L 116.8,76.0 L 117.0,75.8 L 117.8,75.0 L 117.8,74.0 L 117.8,73.0 L 118.0,72.8 L 118.8,72.0 L 118.8,71.0 L 118.0,70.2 L 117.0,70.2 L 116.0,70.2 L 115.0,70.2 L 114.0,70.2 L 113.2,71.0 L 113.0,71.2 L 112.2,72.0 L 112.0,72.2 L 111.2,73.0 L 111.0,73.2 L 110.2,74.0 L 110.0,74.2 L 109.2,75.0 L 109.2,76.0 L 109.2,77.0 L 109.0,77.2 L 108.2,78.0 L 108.2,79.0 L 109.0,79.8 L 109.2,80.0 L 110.0,80.8 L 110.2,81.0 L 111.0,81.8 L 111.2,82.0 L 112.0,82.8 L 113.0,82.8 L 113.2,83.0 L 114.0,83.8 L 114.2,84.0 L 115.0,84.8 L 116.0,84.8 L 116.2,85.0 L 117.0,85.8 L 117.2,86.0 L 118.0,86.8 L 118.2,87.0 L 119.0,87.8 L 119.2,88.0 L 120.0,88.8 L 120.2,89.0 L 121.0,89.8 L 121.2,90.0 L 121.2,91.0 L 121.2,92.0 L 121.2,93.0 L 121.2,94.0 L 121.2,95.0 L 121.2,96.0 L 121.2,97.0 L 121.0,97.2 L 120.2,98.0 L 120.2,99.0 L 120.0,99.2 L 119.2,100.0 L 119.0,100.2 L 118.2,101.0 L 118.0,101.2 L 117.0,101.2 L 116.2,102.0 L 116.0,102.2 L 115.0,102.2 L 114.2,103.0 L 114.0,103.2 Z" fill="black" /><path d="M 158.0,112.2 L 157.0,112.2 L 156.8,112.0 L 156.0,111.2 L 155.8,111.0 L 155.0,110.2 L 154.8,110.0 L 154.8,109.0 L 155.0,108.8 L 155.8,108.0 L 155.8,107.0 L 155.8,106.0 L 156.0,105.8 L 156.8,105.0 L 156.8,104.0 L 156.8,103.0 L 157.0,102.8 L 157.8,102.0 L 157.8,101.0 L 157.8,100.0 L 158.0,99.8 L 158.8,99.0 L 158.8,98.0 L 158.0,97.2 L 157.0,97.2 L 156.0,97.2 L 155.0,97.2 L 154.0,97.2 L 153.2,98.0 L 153.0,98.2 L 152.2,99.0 L 152.0,99.2 L 151.2,100.0 L 151.0,100.2 L 150.0,100.2 L 149.2,101.0 L 149.0,101.2 L 148.0,101.2 L 147.0,101.2 L 146.0,101.2 L 145.0,101.2 L 144.8,101.0 L 144.0,100.2 L 143.8,100.0 L 143.8,99.0 L 143.0,98.2 L 142.2,99.0 L 142.0,99.2 L 141.2,100.0 L 141.0,100.2 L 140.0,100.2 L 139.2,101.0 L 139.0,101.2 L 138.0,101.2 L 137.0,101.2 L 136.8,101.0 L 136.0,100.2 L 135.0,100.2 L 134.8,100.0 L 134.0,99.2 L 133.8,99.0 L 133.8,98.0 L 133.8,97.0 L 133.8,96.0 L 133.8,95.0 L 133.8,94.0 L 134.0,93.8 L 134.8,93.0 L 134.8,92.0 L 134.8,91.0 L 134.0,90.2 L 133.0,90.2 L 132.2,91.0 L 132.0,91.2 L 131.2,92.0 L 131.2,93.0 L 131.0,93.2 L 130.2,94.0 L 130.2,95.0 L 130.2,96.0 L 130.0,96.2 L 129.2,97.0 L 129.2,98.0 L 129.0,98.2 L 128.2,99.0 L 128.2,100.0 L 128.0,100.2 L 127.2,101.0 L 127.0,101.2 L 126.0,101.2 L 125.0,101.2 L 124.8,101.0 L 124.0,100.2 L 123.8,100.0 L 123.8,99.0 L 123.0,98.2 L 122.8,98.0 L 122.8,97.0 L 122.8,96.0 L 122.8,95.0 L 122.8,94.0 L 123.0,93.8 L 123.8,93.0 L 123.8,92.0 L 123.8,91.0 L 123.8,90.0 L 123.8,89.0 L 124.0,88.8 L 124.8,88.0 L 124.8,87.0 L 124.8,86.0 L 125.0,85.8 L 125.8,85.0 L 125.8,84.0 L 126.0,83.8 L 126.8,83.0 L 126.8,82.0 L 126.8,81.0 L 127.0,80.8 L 127.8,80.0 L 127.8,79.0 L 128.0,78.8 L 128.8,78.0 L 128.8,77.0 L 129.0,76.8 L 129.8,76.0 L 129.8,75.0 L 130.0,74.8 L 130.8,74.0 L 130.8,73.0 L 131.0,72.8 L 131.8,72.0 L 132.0,71.8 L 132.8,71.0 L 132.8,70.0 L 133.0,69.8 L 133.8,69.0 L 134.0,68.8 L 134.8,68.0 L 135.0,67.8 L 136.0,67.8 L 136.8,67.0 L 137.0,66.8 L 137.2,67.0 L 138.0,67.8 L 138.2,68.0 L 139.0,68.8 L 139.2,69.0 L 139.2,70.0 L 139.2,71.0 L 139.2,72.0 L 139.2,73.0 L 139.2,74.0 L 139.0,74.2 L 138.2,75.0 L 138.2,76.0 L 138.0,76.2 L 137.2,77.0 L 137.2,78.0 L 137.0,78.2 L 136.2,79.0 L 136.2,80.0 L 136.0,80.2 L 135.2,81.0 L 135.2,82.0 L 135.0,82.2 L 134.2,83.0 L 134.0,83.2 L 133.2,84.0 L 133.0,84.2 L 132.2,85.0 L 132.0,85.2 L 131.2,86.0 L 131.0,86.2 L 130.2,87.0 L 130.0,87.2 L 129.2,88.0 L 129.0,88.2 L 128.2,89.0 L 129.0,89.8 L 129.8,89.0 L 130.0,88.8 L 130.8,88.0 L 131.0,87.8 L 131.8,87.0 L 132.0,86.8 L 132.8,86.0 L 133.0,85.8 L 134.0,85.8 L 134.8,85.0 L 135.0,84.8 L 136.0,84.8 L 136.2,85.0 L 137.0,85.8 L 138.0,85.8 L 138.2,86.0 L 139.0,86.8 L 139.2,87.0 L 139.2,88.0 L 140.0,88.8 L 140.2,89.0 L 140.2,90.0 L 140.2,91.0 L 140.2,92.0 L 140.0,92.2 L 139.2,93.0 L 139.2,94.0 L 139.0,94.2 L 138.2,95.0 L 138.2,96.0 L 138.2,97.0 L 139.0,97.8 L 139.8,97.0 L 140.0,96.8 L 141.0,96.8 L 141.8,96.0 L 141.8,95.0 L 142.0,94.8 L 142.8,94.0 L 143.0,93.8 L 143.8,93.0 L 143.8,92.0 L 144.0,91.8 L 144.8,91.0 L 144.8,90.0 L 145.0,89.8 L 145.8,89.0 L 146.0,88.8 L 146.8,88.0 L 147.0,87.8 L 148.0,87.8 L 148.8,87.0 L 149.0,86.8 L 149.8,86.0 L 150.0,85.8 L 150.8,85.0 L 151.0,84.8 L 151.8,84.0 L 152.0,83.8 L 152.8,83.0 L 153.0,82.8 L 154.0,82.8 L 155.0,82.8 L 156.0,82.8 L 156.2,83.0 L 157.0,83.8 L 157.2,84.0 L 158.0,84.8 L 158.2,85.0 L 158.2,86.0 L 158.2,87.0 L 158.2,88.0 L 158.2,89.0 L 158.2,90.0 L 158.2,91.0 L 158.0,91.2 L 157.2,92.0 L 157.2,93.0 L 158.0,93.8 L 158.8,93.0 L 159.0,92.8 L 159.8,92.0 L 159.8,91.0 L 159.8,90.0 L 160.0,89.8 L 160.8,89.0 L 160.8,88.0 L 160.8,87.0 L 160.8,86.0 L 160.8,85.0 L 160.8,84.0 L 160.8,83.0 L 161.0,82.8 L 161.8,82.0 L 162.0,81.8 L 163.0,81.8 L 164.0,81.8 L 164.2,82.0 L 165.0,82.8 L 165.2,83.0 L 166.0,83.8 L 166.2,84.0 L 166.0,84.2 L 165.2,85.0 L 166.0,85.8 L 166.8,85.0 L 167.0,84.8 L 168.0,84.8 L 168.8,84.0 L 169.0,83.8 L 170.0,83.8 L 171.0,83.8 L 172.0,83.8 L 173.0,83.8 L 174.0,83.8 L 174.2,84.0 L 175.0,84.8 L 175.2,85.0 L 176.0,85.8 L 176.2,86.0 L 176.2,87.0 L 176.2,88.0 L 177.0,88.8 L 177.2,89.0 L 177.0,89.2 L 176.2,90.0 L 176.2,91.0 L 176.2,92.0 L 176.2,93.0 L 176.0,93.2 L 175.2,94.0 L 175.2,95.0 L 175.0,95.2 L 174.2,96.0 L 174.0,96.2 L 173.2,97.0 L 173.0,97.2 L 172.2,98.0 L 172.0,98.2 L 171.2,99.0 L 171.0,99.2 L 170.2,100.0 L 170.0,100.2 L 169.0,100.2 L 168.2,101.0 L 168.0,101.2 L 167.0,101.2 L 166.0,101.2 L 165.0,101.2 L 164.0,101.2 L 163.8,101.0 L 163.0,100.2 L 162.2,101.0 L 162.2,102.0 L 162.2,103.0 L 162.0,103.2 L 161.2,104.0 L 161.2,105.0 L 161.2,106.0 L 161.0,106.2 L 160.2,107.0 L 160.2,108.0 L 160.2,109.0 L 160.0,109.2 L 159.2,110.0 L 159.2,111.0 L 159.0,111.2 L 158.2,112.0 L 158.0,112.2 Z" fill="black" /><path d="M 75.0,112.2 L 74.0,112.2 L 73.0,112.2 L 72.8,112.0 L 72.0,111.2 L 71.8,111.0 L 71.0,110.2 L 70.8,110.0 L 70.8,109.0 L 70.8,108.0 L 70.8,107.0 L 71.0,106.8 L 71.8,106.0 L 71.8,105.0 L 72.0,104.8 L 72.8,104.0 L 73.0,103.8 L 74.0,103.8 L 74.8,103.0 L 75.0,102.8 L 75.8,102.0 L 76.0,101.8 L 77.0,101.8 L 77.8,101.0 L 78.0,100.8 L 79.0,100.8 L 79.8,100.0 L 79.8,99.0 L 79.0,98.2 L 78.2,99.0 L 78.0,99.2 L 77.0,99.2 L 76.0,99.2 L 75.0,99.2 L 74.0,99.2 L 73.8,99.0 L 73.0,98.2 L 72.8,98.0 L 72.0,97.2 L 71.2,98.0 L 71.2,99.0 L 71.0,99.2 L 70.0,99.2 L 69.2,100.0 L 69.0,100.2 L 68.2,101.0 L 68.0,101.2 L 67.0,101.2 L 66.2,102.0 L 66.0,102.2 L 65.0,102.2 L 64.0,102.2 L 63.0,102.2 L 62.0,102.2 L 61.0,102.2 L 60.8,102.0 L 60.0,101.2 L 59.8,101.0 L 59.0,100.2 L 58.8,100.0 L 58.0,99.2 L 57.0,99.2 L 56.0,99.2 L 55.2,100.0 L 55.0,100.2 L 54.0,100.2 L 53.2,101.0 L 53.0,101.2 L 52.0,101.2 L 51.8,101.0 L 51.0,100.2 L 50.0,100.2 L 49.8,100.0 L 49.0,99.2 L 48.8,99.0 L 48.8,98.0 L 48.8,97.0 L 48.8,96.0 L 48.8,95.0 L 48.8,94.0 L 49.0,93.8 L 49.8,93.0 L 49.8,92.0 L 49.8,91.0 L 49.0,90.2 L 48.0,90.2 L 47.0,90.2 L 46.2,91.0 L 46.0,91.2 L 45.2,92.0 L 45.0,92.2 L 44.2,93.0 L 44.2,94.0 L 44.0,94.2 L 43.2,95.0 L 43.0,95.2 L 42.2,96.0 L 42.2,97.0 L 42.0,97.2 L 41.2,98.0 L 41.0,98.2 L 40.2,99.0 L 40.2,100.0 L 40.0,100.2 L 39.0,100.2 L 38.0,100.2 L 37.0,100.2 L 36.8,100.0 L 36.0,99.2 L 35.2,100.0 L 35.0,100.2 L 34.0,100.2 L 33.2,101.0 L 33.0,101.2 L 32.0,101.2 L 31.0,101.2 L 30.0,101.2 L 29.0,101.2 L 28.8,101.0 L 28.0,100.2 L 27.8,100.0 L 27.0,99.2 L 26.2,100.0 L 26.0,100.2 L 25.2,101.0 L 25.0,101.2 L 24.0,101.2 L 23.2,102.0 L 23.0,102.2 L 22.0,102.2 L 21.0,102.2 L 20.8,102.0 L 20.0,101.2 L 19.0,101.2 L 18.8,101.0 L 18.0,100.2 L 17.8,100.0 L 17.8,99.0 L 17.8,98.0 L 17.8,97.0 L 17.8,96.0 L 17.8,95.0 L 17.8,94.0 L 18.0,93.8 L 18.8,93.0 L 18.8,92.0 L 19.0,91.8 L 19.8,91.0 L 19.8,90.0 L 20.0,89.8 L 20.8,89.0 L 21.0,88.8 L 21.8,88.0 L 22.0,87.8 L 22.8,87.0 L 23.0,86.8 L 23.8,86.0 L 24.0,85.8 L 24.8,85.0 L 25.0,84.8 L 26.0,84.8 L 26.8,84.0 L 27.0,83.8 L 28.0,83.8 L 29.0,83.8 L 29.8,83.0 L 30.0,82.8 L 31.0,82.8 L 31.2,83.0 L 32.0,83.8 L 33.0,83.8 L 33.2,84.0 L 34.0,84.8 L 34.2,85.0 L 35.0,85.8 L 35.2,86.0 L 35.2,87.0 L 35.2,88.0 L 35.2,89.0 L 35.0,89.2 L 34.2,90.0 L 34.2,91.0 L 34.2,92.0 L 34.0,92.2 L 33.2,93.0 L 33.2,94.0 L 33.0,94.2 L 32.2,95.0 L 32.2,96.0 L 32.2,97.0 L 33.0,97.8 L 33.8,97.0 L 34.0,96.8 L 34.8,96.0 L 35.0,95.8 L 35.8,95.0 L 36.0,94.8 L 36.8,94.0 L 37.0,93.8 L 37.8,93.0 L 37.8,92.0 L 38.0,91.8 L 38.8,91.0 L 38.8,90.0 L 38.8,89.0 L 38.8,88.0 L 39.0,87.8 L 39.8,87.0 L 40.0,86.8 L 41.0,86.8 L 41.8,86.0 L 42.0,85.8 L 42.2,86.0 L 43.0,86.8 L 44.0,86.8 L 44.2,87.0 L 45.0,87.8 L 46.0,87.8 L 46.8,87.0 L 47.0,86.8 L 47.8,86.0 L 48.0,85.8 L 49.0,85.8 L 50.0,85.8 L 51.0,85.8 L 52.0,85.8 L 53.0,85.8 L 53.2,86.0 L 54.0,86.8 L 54.2,87.0 L 54.2,88.0 L 55.0,88.8 L 55.2,89.0 L 55.2,90.0 L 55.2,91.0 L 55.0,91.2 L 54.2,92.0 L 54.2,93.0 L 54.2,94.0 L 54.0,94.2 L 53.2,95.0 L 53.2,96.0 L 53.2,97.0 L 54.0,97.8 L 54.8,97.0 L 55.0,96.8 L 55.8,96.0 L 56.0,95.8 L 56.8,95.0 L 56.8,94.0 L 57.0,93.8 L 57.8,93.0 L 57.8,92.0 L 58.0,91.8 L 58.8,91.0 L 58.8,90.0 L 59.0,89.8 L 59.8,89.0 L 59.8,88.0 L 60.0,87.8 L 60.8,87.0 L 61.0,86.8 L 61.8,86.0 L 62.0,85.8 L 62.8,85.0 L 63.0,84.8 L 64.0,84.8 L 64.8,84.0 L 65.0,83.8 L 66.0,83.8 L 67.0,83.8 L 68.0,83.8 L 69.0,83.8 L 70.0,83.8 L 70.2,84.0 L 71.0,84.8 L 71.2,85.0 L 71.2,86.0 L 72.0,86.8 L 72.2,87.0 L 72.2,88.0 L 72.0,88.2 L 71.2,89.0 L 71.2,90.0 L 71.0,90.2 L 70.2,91.0 L 70.0,91.2 L 69.0,91.2 L 68.0,91.2 L 67.0,91.2 L 66.8,91.0 L 66.0,90.2 L 65.8,90.0 L 66.0,89.8 L 66.8,89.0 L 67.0,88.8 L 67.8,88.0 L 67.0,87.2 L 66.0,87.2 L 65.2,88.0 L 65.2,89.0 L 65.0,89.2 L 64.2,90.0 L 64.0,90.2 L 63.2,91.0 L 63.2,92.0 L 63.0,92.2 L 62.2,93.0 L 62.2,94.0 L 62.2,95.0 L 62.2,96.0 L 62.2,97.0 L 62.2,98.0 L 63.0,98.8 L 64.0,98.8 L 65.0,98.8 L 66.0,98.8 L 66.8,98.0 L 67.0,97.8 L 68.0,97.8 L 68.8,97.0 L 69.0,96.8 L 69.8,96.0 L 70.0,95.8 L 70.8,95.0 L 70.8,94.0 L 71.0,93.8 L 71.8,93.0 L 71.8,92.0 L 72.0,91.8 L 72.8,91.0 L 72.8,90.0 L 72.8,89.0 L 73.0,88.8 L 73.8,88.0 L 73.8,87.0 L 74.0,86.8 L 74.8,86.0 L 75.0,85.8 L 75.8,85.0 L 76.0,84.8 L 77.0,84.8 L 78.0,84.8 L 78.2,85.0 L 79.0,85.8 L 79.2,86.0 L 79.2,87.0 L 79.2,88.0 L 79.0,88.2 L 78.2,89.0 L 78.2,90.0 L 78.0,90.2 L 77.2,91.0 L 77.2,92.0 L 77.2,93.0 L 77.0,93.2 L 76.2,94.0 L 76.2,95.0 L 77.0,95.8 L 78.0,95.8 L 78.8,95.0 L 79.0,94.8 L 79.8,94.0 L 80.0,93.8 L 80.8,93.0 L 80.8,92.0 L 81.0,91.8 L 81.8,91.0 L 81.8,90.0 L 82.0,89.8 L 82.8,89.0 L 82.8,88.0 L 83.0,87.8 L 83.8,87.0 L 84.0,86.8 L 84.8,86.0 L 85.0,85.8 L 86.0,85.8 L 86.2,86.0 L 87.0,86.8 L 87.2,87.0 L 87.2,88.0 L 87.2,89.0 L 87.2,90.0 L 87.2,91.0 L 87.0,91.2 L 86.2,92.0 L 86.2,93.0 L 86.2,94.0 L 86.0,94.2 L 85.2,95.0 L 85.2,96.0 L 86.0,96.8 L 86.8,96.0 L 87.0,95.8 L 87.8,95.0 L 87.8,94.0 L 88.0,93.8 L 88.8,93.0 L 88.8,92.0 L 89.0,91.8 L 89.8,91.0 L 90.0,90.8 L 91.0,90.8 L 91.2,91.0 L 92.0,91.8 L 92.2,92.0 L 92.2,93.0 L 92.0,93.2 L 91.2,94.0 L 91.0,94.2 L 90.2,95.0 L 90.2,96.0 L 90.0,96.2 L 89.2,97.0 L 89.0,97.2 L 88.2,98.0 L 88.0,98.2 L 87.2,99.0 L 87.0,99.2 L 86.2,100.0 L 86.0,100.2 L 85.0,100.2 L 84.2,101.0 L 84.0,101.2 L 83.2,102.0 L 83.0,102.2 L 82.2,103.0 L 82.2,104.0 L 82.0,104.2 L 81.2,105.0 L 81.2,106.0 L 81.0,106.2 L 80.2,107.0 L 80.2,108.0 L 80.0,108.2 L 79.2,109.0 L 79.0,109.2 L 78.2,110.0 L 78.0,110.2 L 77.2,111.0 L 77.0,111.2 L 76.0,111.2 L 75.2,112.0 L 75.0,112.2 Z" fill="black" /><path d="M 24.8,97.0 L 25.0,96.8 L 25.8,96.0 L 26.0,95.8 L 26.8,95.0 L 27.0,94.8 L 27.8,94.0 L 27.8,93.0 L 28.0,92.8 L 28.8,92.0 L 29.0,91.8 L 29.8,91.0 L 30.0,90.8 L 30.8,90.0 L 30.8,89.0 L 31.0,88.8 L 31.8,88.0 L 31.8,87.0 L 31.0,86.2 L 30.0,86.2 L 29.0,86.2 L 28.2,87.0 L 28.0,87.2 L 27.2,88.0 L 27.0,88.2 L 26.2,89.0 L 26.0,89.2 L 25.2,90.0 L 25.2,91.0 L 25.0,91.2 L 24.2,92.0 L 24.0,92.2 L 23.2,93.0 L 23.2,94.0 L 23.2,95.0 L 23.0,95.2 L 22.2,96.0 L 22.2,97.0 L 23.0,97.8 L 24.0,97.8 L 24.8,97.0 Z" fill="black" /><path d="M 154.8,91.0 L 154.8,90.0 L 154.8,89.0 L 154.8,88.0 L 155.0,87.8 L 155.8,87.0 L 155.0,86.2 L 154.0,86.2 L 153.2,87.0 L 153.2,88.0 L 153.2,89.0 L 153.2,90.0 L 153.2,91.0 L 154.0,91.8 L 154.8,91.0 Z" fill="black" /><path d="M 167.8,97.0 L 168.0,96.8 L 168.8,96.0 L 169.0,95.8 L 169.8,95.0 L 170.0,94.8 L 170.8,94.0 L 170.8,93.0 L 171.0,92.8 L 171.8,92.0 L 171.8,91.0 L 171.8,90.0 L 171.8,89.0 L 171.8,88.0 L 171.0,87.2 L 170.0,87.2 L 169.2,88.0 L 169.0,88.2 L 168.0,88.2 L 167.2,89.0 L 167.0,89.2 L 166.2,90.0 L 166.0,90.2 L 165.2,91.0 L 165.2,92.0 L 165.0,92.2 L 164.2,93.0 L 164.2,94.0 L 164.2,95.0 L 164.0,95.2 L 163.2,96.0 L 163.2,97.0 L 164.0,97.8 L 165.0,97.8 L 166.0,97.8 L 167.0,97.8 L 167.8,97.0 Z" fill="black" /><path d="M 149.8,97.0 L 150.0,96.8 L 150.8,96.0 L 151.0,95.8 L 151.8,95.0 L 151.0,94.2 L 150.8,94.0 L 150.0,93.2 L 149.8,93.0 L 149.8,92.0 L 149.0,91.2 L 148.2,92.0 L 148.2,93.0 L 148.2,94.0 L 148.2,95.0 L 148.0,95.2 L 147.2,96.0 L 147.2,97.0 L 148.0,97.8 L 149.0,97.8 L 149.8,97.0 Z" fill="black" /><path d="M 75.8,107.0 L 76.0,106.8 L 76.8,106.0 L 77.0,105.8 L 77.8,105.0 L 77.0,104.2 L 76.2,105.0 L 76.0,105.2 L 75.2,106.0 L 75.0,106.2 L 74.2,107.0 L 75.0,107.8 L 75.8,107.0 Z" fill="black" /></svg>